<svg xmlns="http://www.w3.org/2000/svg" width="36.21" height="36.098" viewBox="0 0 36.21 36.098">
  <g id="Grupo_14" data-name="Grupo 14" transform="translate(-230 -697)">
    <ellipse id="Elipse_6" data-name="Elipse 6" cx="18.105" cy="18.049" rx="18.105" ry="18.049" transform="translate(230 697)" fill="#373737"/>
    <path id="Caminho_9" data-name="Caminho 9" d="M128.986,18.049A16.881,16.881,0,1,1,112.105,1.222,16.854,16.854,0,0,1,128.986,18.049Z" transform="translate(136 697)" fill="#373737" stroke="#000" stroke-width="1"/>
    <path id="Caminho_10" data-name="Caminho 10" d="M107.888,11.453h1.937V7.693a.982.982,0,0,0-1.962,0v3.761Z" transform="translate(136 697)"/>
    <path id="Caminho_11" data-name="Caminho 11" d="M109.8,11.453h-1.938a.5.5,0,0,0-.49.493v1.387h2.942V11.947a.505.505,0,0,0-.49-.493Z" transform="translate(136 697)"/>
    <path id="Caminho_12" data-name="Caminho 12" d="M112.765,11.947v1.387h2.942V11.947a.505.505,0,0,0-.514-.493H113.28A.506.506,0,0,0,112.765,11.947Z" transform="translate(136 697)"/>
    <path id="Caminho_13" data-name="Caminho 13" d="M115.709,13.334h-8.826a.482.482,0,0,0-.491.47V27.9a.482.482,0,0,0,.491.47h9.807a.481.481,0,0,0,.49-.47V13.8a.481.481,0,0,0-.49-.47h-.981Zm-7.355,1.88h6.865v3.76h-6.865Z" transform="translate(136 697)"/>
    <path id="Caminho_14" data-name="Caminho 14" d="M115.219,15.214h-6.865v3.76h6.865v-3.76Z" transform="translate(136 697)"/>
    <path id="Caminho_15" data-name="Caminho 15" d="M116.788,12.58h-.49v-.917a.986.986,0,0,0-1-.964H113.38a.985.985,0,0,0-1,.964v.917H110.9v-.917a.957.957,0,0,0-.491-.826V7.41a1.472,1.472,0,0,0-2.942,0v3.427a.956.956,0,0,0-.49.826v.917a.962.962,0,0,0-.981.94v14.1a.962.962,0,0,0,.981.94h9.807a.962.962,0,0,0,.981-.94V13.52A.962.962,0,0,0,116.788,12.58Zm-3.432-.917a.025.025,0,0,1,.024-.023h1.913a.025.025,0,0,1,.024.023v.917h-1.961Zm-5.394.917v-.917a.025.025,0,0,1,.024-.023H109.9a.025.025,0,0,1,.024.023v.917Zm.98-5.64a.48.48,0,0,1,.49.47V10.7h-.98V7.41A.481.481,0,0,1,108.942,6.94Zm-1.961,20.681V13.52h9.807v14.1Z" transform="translate(136 697)"/>
    <path id="Caminho_16" data-name="Caminho 16" d="M115.657,15.494a.48.48,0,0,0-.49-.47H108.3a.481.481,0,0,0-.491.47v3.76a.481.481,0,0,0,.491.47h6.865a.48.48,0,0,0,.49-.47v-3.76Zm-6.865,3.29v-2.82h5.884v.94h-2.992a.471.471,0,1,0,0,.94h2.992v.94Z" transform="translate(136 697)" fill="#373737"/>
    <path id="Caminho_17" data-name="Caminho 17" d="M110.275,16.9h-.012a.471.471,0,1,0,0,.94h.012a.471.471,0,1,0,0-.94Z" transform="translate(136 697)" fill="#373737"/>
    <path id="Caminho_18" data-name="Caminho 18" d="M113.705,21.605a.471.471,0,1,0,0-.94h-3.939a.471.471,0,1,0,0,.94Z" transform="translate(136 697)" fill="#373737"/>
    <path id="Caminho_19" data-name="Caminho 19" d="M115.167,22.544H108.3a.471.471,0,1,0,0,.94h6.865a.471.471,0,1,0,0-.94Z" transform="translate(136 697)" fill="#373737"/>
    <path id="Caminho_20" data-name="Caminho 20" d="M113.705,26.3h-3.939a.471.471,0,1,0,0,.94h3.939a.471.471,0,1,0,0-.94Z" transform="translate(136 697)" fill="#373737"/>
    <path id="Caminho_21" data-name="Caminho 21" d="M115.166,24.424h-.011a.471.471,0,1,0,0,.94h.011a.471.471,0,1,0,0-.94Z" transform="translate(136 697)" fill="#373737"/>
    <path id="Caminho_22" data-name="Caminho 22" d="M113.746,24.424H108.3a.471.471,0,1,0,0,.94h5.444a.471.471,0,1,0,0-.94Z" transform="translate(136 697)" fill="#373737"/>
  </g>
</svg>
