<svg xmlns="http://www.w3.org/2000/svg" width="36.21" height="36.098" viewBox="0 0 36.21 36.098">
  <g id="Grupo_12" data-name="Grupo 12" transform="translate(-136 -700)">
    <ellipse id="Elipse_4" data-name="Elipse 4" cx="18.105" cy="18.049" rx="18.105" ry="18.049" transform="translate(136 700)" fill="#373737"/>
    <path id="Caminho_5" data-name="Caminho 5" d="M34.986,21.049A16.881,16.881,0,1,1,18.105,4.222,16.854,16.854,0,0,1,34.986,21.049Z" transform="translate(136 697)" fill="#373737" stroke="#fff" stroke-width="1"/>
    <path id="Caminho_6" data-name="Caminho 6" d="M25.5,14h-15A2.382,2.382,0,0,0,8,16.25v9a2.382,2.382,0,0,0,2.5,2.25h5L13.832,32l7.5-4.5H25.5A2.382,2.382,0,0,0,28,25.25v-9A2.382,2.382,0,0,0,25.5,14ZM13,22.251a1.51,1.51,0,1,1,0-3,1.51,1.51,0,1,1,0,3Zm5,0a1.51,1.51,0,1,1,1.668-1.5A1.59,1.59,0,0,1,18,22.251Zm5,0a1.51,1.51,0,1,1,1.668-1.5A1.59,1.59,0,0,1,23,22.251Z" transform="translate(136 697)" fill="#fff"/>
  </g>
</svg>
