<svg xmlns="http://www.w3.org/2000/svg" width="36.21" height="36.098" viewBox="0 0 36.21 36.098">
  <g id="Grupo_13" data-name="Grupo 13" transform="translate(-181 -698)">
    <ellipse id="Elipse_5" data-name="Elipse 5" cx="18.105" cy="18.049" rx="18.105" ry="18.049" transform="translate(181 698)"/>
    <path id="Caminho_7" data-name="Caminho 7" d="M79.986,19.049A16.881,16.881,0,1,1,63.105,2.222,16.854,16.854,0,0,1,79.986,19.049Z" transform="translate(136 697)" fill="#373737" stroke="#000" stroke-width="1"/>
    <path id="Caminho_8" data-name="Caminho 8" d="M72.1,20.444l-1.042-4.477a4.512,4.512,0,0,0-4.351-3.374h-7.03a4.512,4.512,0,0,0-4.351,3.374l-1.042,4.477a2.574,2.574,0,0,0,1.7,2.972l.061.02a2.531,2.531,0,0,0,2.991-1.161l.907-1.355a1.273,1.273,0,0,1,1.1-.646h4.285a1.273,1.273,0,0,1,1.1.646l.907,1.355a2.532,2.532,0,0,0,2.991,1.161l.061-.02A2.573,2.573,0,0,0,72.1,20.444Zm-11.182-3H59.459v1.475H58.189V17.444H56.729V16.16h1.459V14.686h1.271V16.16h1.459Zm6.431-3.065a.808.808,0,1,1-.8.808A.8.8,0,0,1,67.35,14.378Zm-1.6,3.232a.808.808,0,1,1,.8-.809A.8.8,0,0,1,65.75,17.611Zm1.6,1.616a.808.808,0,1,1,.8-.808A.8.8,0,0,1,67.35,19.226Zm1.6-1.616a.808.808,0,1,1,.8-.809A.8.8,0,0,1,68.949,17.611Z" transform="translate(136 697)"/>
  </g>
</svg>
